<?xml version="1.0" standalone="no"?>
<!DOCTYPE svg PUBLIC "-//W3C//DTD SVG 20010904//EN"
 "http://www.w3.org/TR/2001/REC-SVG-20010904/DTD/svg10.dtd">
<svg version="1.0" xmlns="http://www.w3.org/2000/svg"
 width="512.000000pt" height="512.000000pt" viewBox="0 0 512.000000 512.000000"
 preserveAspectRatio="xMidYMid meet">
<metadata>
Created by potrace 1.14, written by Peter Selinger 2001-2017
</metadata>
<g transform="translate(0.000000,512.000000) scale(0.100000,-0.100000)"
fill="#000000" stroke="none">
<path d="M2379 5056 c-2 -2 -38 -6 -79 -10 -78 -6 -85 -7 -215 -31 -156 -29
-337 -80 -440 -124 -11 -5 -65 -28 -119 -51 -55 -23 -118 -52 -140 -65 -23
-12 -63 -35 -91 -50 -27 -15 -57 -33 -66 -41 -8 -8 -19 -14 -22 -14 -10 0
-162 -105 -232 -161 -99 -77 -255 -225 -335 -315 -79 -89 -270 -351 -270 -370
0 -3 -8 -18 -19 -32 -22 -32 -98 -181 -140 -275 -73 -162 -145 -407 -177 -597
-2 -14 -6 -39 -9 -56 -20 -121 -27 -515 -11 -639 12 -96 16 -128 22 -155 2
-14 7 -38 10 -55 21 -119 80 -323 128 -442 20 -50 36 -96 36 -102 0 -6 5 -11
10 -11 6 0 10 -6 10 -13 0 -31 106 -226 201 -367 221 -333 519 -610 866 -807
179 -101 426 -205 492 -208 43 -1 78 14 111 50 l25 27 -1 259 c-1 143 -3 261
-5 264 -3 2 -24 0 -47 -6 -147 -33 -352 -26 -480 17 -154 52 -284 169 -336
304 -28 73 -85 171 -136 235 -50 62 -60 71 -167 150 -121 90 -86 150 75 130
128 -16 258 -111 362 -265 68 -101 136 -170 208 -211 53 -30 193 -66 242 -62
80 6 144 18 211 39 l76 24 18 73 c21 89 67 186 111 234 19 20 33 38 31 39 -1
2 -25 5 -52 9 -28 3 -57 7 -65 10 -8 2 -35 7 -60 10 -112 15 -259 61 -388 121
-285 132 -472 367 -548 689 -17 72 -18 77 -29 160 -3 28 -8 61 -11 75 -10 63
-4 310 11 387 33 174 118 353 216 458 28 30 28 30 13 80 -25 84 -26 96 -30
225 -3 120 13 255 36 305 5 11 14 39 21 63 13 43 11 42 82 45 51 1 166 -27
257 -63 117 -46 279 -131 325 -171 33 -28 61 -31 132 -14 87 20 102 23 149 30
21 3 48 8 59 10 65 14 174 20 355 20 181 0 262 -4 350 -19 14 -3 42 -7 62 -10
59 -9 209 -44 215 -50 6 -5 71 30 83 44 11 13 271 154 278 151 1 -1 19 6 39
14 53 22 184 56 194 50 4 -3 10 -2 13 3 5 8 79 7 102 -2 12 -5 49 -106 59
-161 2 -16 8 -43 13 -60 5 -16 9 -84 10 -150 1 -95 -3 -140 -22 -214 -24 -101
-25 -97 20 -145 53 -57 134 -208 167 -311 60 -185 66 -444 16 -690 -40 -192
-90 -310 -206 -475 -43 -60 -241 -230 -269 -230 -3 0 -18 -8 -32 -18 -44 -31
-312 -130 -312 -116 0 3 -8 1 -17 -5 -20 -10 -214 -44 -286 -50 -5 -1 7 -20
26 -44 62 -75 108 -185 125 -298 5 -31 8 -237 8 -458 -2 -451 -1 -458 63 -490
60 -30 105 -21 296 59 141 59 391 196 459 251 6 5 40 30 76 56 178 128 390
342 528 532 34 47 66 91 70 96 18 23 106 171 145 248 76 144 177 406 201 518
3 13 10 44 17 69 23 93 24 102 34 165 25 165 30 232 30 430 0 163 -10 338 -20
355 -2 3 -6 25 -9 50 -25 183 -104 450 -183 620 -82 176 -115 236 -197 363
-147 227 -367 469 -563 618 -32 24 -60 46 -63 49 -16 16 -160 110 -169 110 -6
0 -11 4 -11 9 0 5 -8 11 -17 15 -10 3 -25 10 -33 16 -32 22 -169 93 -235 122
-38 16 -83 36 -100 44 -83 37 -279 98 -383 118 -13 3 -31 7 -40 10 -9 3 -33 7
-52 10 -19 3 -46 8 -60 11 -14 3 -43 8 -65 11 -22 2 -53 7 -70 10 -35 6 -461
15 -466 10z"/>
</g>
</svg>
